<svg width="75" height="67" viewBox="0 0 75 67" fill="none" xmlns="http://www.w3.org/2000/svg">
<path fill-rule="evenodd" clip-rule="evenodd" d="M66.6979 45.0949C61.9592 56.4462 50.6256 64.4557 37.3657 64.4557C24.1058 64.4557 12.7722 56.4462 8.03352 45.0949H5.87612C10.7217 57.5856 22.993 66.4557 37.3657 66.4557C51.7384 66.4557 64.0097 57.5856 68.8553 45.0949H66.6979ZM7.83999 21.8354C12.4579 10.2334 23.9218 2 37.3657 2C50.8096 2 62.2735 10.2334 66.8914 21.8354H69.0352C64.3191 9.0954 51.9198 0 37.3657 0C22.8116 0 10.4122 9.0954 5.6962 21.8354H7.83999Z" fill="#124279"/>
<path d="M4.68811 31.9327H6.86811C7.85478 31.9327 8.61478 31.6593 9.14811 31.1127C9.68145 30.566 9.94811 29.886 9.94811 29.0727C9.94811 27.1127 8.84145 26.1327 6.62811 26.1327H4.68811V31.9327ZM11.9681 38.5127H10.4881L7.10811 33.0327H6.72811H4.68811V38.5127H3.44811V25.0327H6.48811C8.06145 25.0327 9.23478 25.3927 10.0081 26.1127C10.7948 26.8193 11.1881 27.826 11.1881 29.1327C11.1614 30.0393 10.9081 30.8193 10.4281 31.4727C9.94811 32.126 9.26811 32.5727 8.38811 32.8127L11.9681 38.5127ZM20.6331 32.8727V32.4127C20.6331 31.4927 20.3731 30.7593 19.8531 30.2127C19.3464 29.666 18.6598 29.3927 17.7931 29.3927C16.9398 29.3927 16.2264 29.6927 15.6531 30.2927C15.0798 30.8927 14.7464 31.7527 14.6531 32.8727H20.6331ZM21.2531 36.7727V38.0127C20.4531 38.4127 19.5198 38.6127 18.4531 38.6127C16.9464 38.6127 15.7198 38.146 14.7731 37.2127C13.8398 36.266 13.3731 35.026 13.3731 33.4927C13.3731 31.866 13.7864 30.586 14.6131 29.6527C15.4398 28.7193 16.5131 28.2527 17.8331 28.2527C19.0731 28.2527 20.0598 28.6593 20.7931 29.4727C21.5264 30.286 21.8931 31.4327 21.8931 32.9127C21.8931 33.366 21.8664 33.726 21.8131 33.9927H14.6531C14.7464 35.1127 15.1331 35.9727 15.8131 36.5727C16.4931 37.1593 17.3931 37.4527 18.5131 37.4527C19.6598 37.4527 20.5731 37.226 21.2531 36.7727ZM25.5842 28.3727V30.1127C26.2109 28.846 27.2842 28.2127 28.8042 28.2127C29.7775 28.2127 30.5575 28.5127 31.1442 29.1127C31.7309 29.7127 32.0242 30.486 32.0242 31.4327V38.5127H30.8042V31.8127C30.8042 31.026 30.6042 30.426 30.2042 30.0127C29.8042 29.5993 29.2775 29.3927 28.6242 29.3927C27.7975 29.3927 27.0842 29.7127 26.4842 30.3527C25.8842 30.9793 25.5842 31.8327 25.5842 32.9127V38.5127H24.3642V28.3727H25.5842ZM36.8301 29.4127V35.7127C36.8301 36.8727 37.3701 37.4527 38.4501 37.4527C38.9835 37.4527 39.4368 37.2993 39.8101 36.9927V38.2327C39.4235 38.486 38.9768 38.6127 38.4701 38.6127C36.5501 38.6127 35.5901 37.626 35.5901 35.6527V29.4127H33.9301V28.3727H35.5901V25.8327H36.8301V28.3727H39.7301V29.4127H36.8301ZM42.3153 38.5127V28.3727H43.5353V38.5127H42.3153ZM42.3153 25.7327C42.1553 25.5727 42.0753 25.3727 42.0753 25.1327C42.0753 24.8927 42.1553 24.6927 42.3153 24.5327C42.4753 24.3593 42.6753 24.2727 42.9153 24.2727C43.1553 24.2727 43.3553 24.3593 43.5153 24.5327C43.6886 24.6927 43.7753 24.8927 43.7753 25.1327C43.7753 25.3727 43.6886 25.5727 43.5153 25.7327C43.3553 25.8927 43.1553 25.9727 42.9153 25.9727C42.6753 25.9727 42.4753 25.8927 42.3153 25.7327ZM52.9694 28.3727H54.1894V38.5127H52.9694V36.6927C52.436 37.9993 51.3627 38.6527 49.7494 38.6527C48.7627 38.6527 47.976 38.3593 47.3894 37.7727C46.816 37.1727 46.5294 36.386 46.5294 35.4127V28.3727H47.7494V35.0727C47.7494 35.846 47.9494 36.4393 48.3494 36.8527C48.7627 37.266 49.3027 37.4727 49.9694 37.4727C50.8627 37.4727 51.5827 37.1527 52.1294 36.5127C52.6894 35.8727 52.9694 35.0393 52.9694 34.0127V28.3727ZM58.4553 28.3727V30.0327C59.0286 28.8193 59.9753 28.2127 61.2953 28.2127C62.922 28.2127 63.922 28.8793 64.2953 30.2127C64.922 28.8793 65.922 28.2127 67.2953 28.2127C68.362 28.2127 69.1553 28.5127 69.6753 29.1127C70.1953 29.6993 70.4553 30.4727 70.4553 31.4327V38.5127H69.2353V31.8127C69.2353 30.1993 68.5286 29.3927 67.1153 29.3927C66.422 29.3927 65.802 29.7127 65.2553 30.3527C64.722 30.9927 64.4553 31.846 64.4553 32.9127V38.5127H63.2353V31.8127C63.2353 30.1993 62.5286 29.3927 61.1153 29.3927C60.422 29.3927 59.802 29.7127 59.2553 30.3527C58.722 30.9927 58.4553 31.846 58.4553 32.9127V38.5127H57.2353V28.3727H58.4553Z" fill="#124279"/>
</svg>
